<?xml version="1.0" standalone="no"?><!DOCTYPE svg PUBLIC "-//W3C//DTD SVG 1.1//EN" "http://www.w3.org/Graphics/SVG/1.1/DTD/svg11.dtd"><svg t="1700813112486" class="icon" viewBox="0 0 1024 1024" version="1.1" xmlns="http://www.w3.org/2000/svg" p-id="54428" xmlns:xlink="http://www.w3.org/1999/xlink" width="16" height="16"><path d="M812.48 839.04c-26.24 39.36-63.68 70.72-112.64 94.08-48.64 23.36-105.6 34.88-169.92 34.88-69.12 0-129.92-13.44-182.4-40.64-52.48-27.2-93.76-59.84-123.52-97.92-30.08-38.08-48-73.92-54.08-106.88 21.76-5.12 34.24-8.32 37.12-8.96l93.44-22.4c5.12 23.36 16.96 46.08 34.88 68.16s42.88 40.64 74.88 55.04c32 14.72 69.44 22.08 112.96 22.08 54.08 0 98.24-11.2 132.8-33.92 34.56-22.4 52.8-53.12 55.04-92.16 0-30.72-9.6-55.68-28.8-74.88-19.2-19.2-42.88-34.24-71.36-45.12-28.48-10.88-67.2-22.72-115.84-35.52-60.8-15.68-110.08-31.68-147.84-47.68a256.64 256.64 0 0 1-96.64-71.36c-26.56-31.36-40-73.6-40-126.08 0-48 12.48-91.2 37.12-129.28 24.64-38.4 61.44-68.48 110.4-90.56 48.64-22.08 107.52-33.28 176.64-33.28 76.48 0 144.32 17.92 203.2 54.08 58.88 36.16 97.6 91.52 116.48 166.72l-126.08 32.64c-21.12-86.4-87.04-129.28-198.08-129.28-52.48 0-96.32 11.52-131.84 34.88-35.2 23.36-52.8 54.08-52.8 92.16 0 12.16 1.6 23.04 4.48 32.64 8.96 24.64 29.12 44.16 60.8 58.56 31.36 14.4 76.48 29.12 135.04 45.12 64.64 17.92 117.12 35.52 157.44 52.8 40.64 17.28 75.52 43.2 104.64 77.76 29.12 34.56 43.84 79.68 43.84 135.04 0 46.4-13.12 89.92-39.36 129.28z" p-id="54429" fill="#112079"></path></svg>