<?xml version="1.0" standalone="no"?><!DOCTYPE svg PUBLIC "-//W3C//DTD SVG 1.1//EN" "http://www.w3.org/Graphics/SVG/1.1/DTD/svg11.dtd"><svg t="1700812264487" class="icon" viewBox="0 0 1024 1024" version="1.1" xmlns="http://www.w3.org/2000/svg" p-id="39593" xmlns:xlink="http://www.w3.org/1999/xlink" width="16" height="16"><path d="M891.306667 248.576a19.456 19.456 0 0 0-12.970667-4.181333 31.658667 31.658667 0 0 0-7.338667 1.109333 959.146667 959.146667 0 0 1-133.930666 40.106667 26.709333 26.709333 0 0 0-18.432 16.128c-30.805333 83.84-109.098667 164.010667-191.146667 247.936-3.114667 3.072-8.021333 7.338667-15.36 7.338666s-12.373333-3.712-15.445333-7.253333C414.592 465.621333 336.341333 386.133333 305.365333 301.653333a27.434667 27.434667 0 0 0-18.517333-16.042666 1073.493333 1073.493333 0 0 1-133.76-40.661334c-2.645333-1.28-5.034667-1.28-7.509333-1.28a20.138667 20.138667 0 0 0-12.885334 4.266667 21.632 21.632 0 0 0-8.106666 18.688c6.826667 69.632 34.56 138.112 84.48 209.706667 46.933333 67.2 107.946667 129.493333 167.253333 189.952 108.544 111.061333 211.456 215.893333 220.714667 337.322666a21.162667 21.162667 0 0 0 21.12 19.84h127.658666a22.698667 22.698667 0 0 0 15.402667-6.698666 21.717333 21.717333 0 0 0 5.589333-15.445334c-4.394667-81.493333-34.645333-162.816-93.866666-249.216-12.373333-17.92-25.344-35.712-39.466667-53.077333-5.589333-6.826667-3.072-15.36 1.152-20.309333l12.928-13.056c59.221333-60.373333 120.32-122.752 167.253333-189.994667 49.92-71.381333 77.696-139.306667 84.48-209.749333a20.693333 20.693333 0 0 0-7.936-17.322667zM374.4 761.344a19.157333 19.157333 0 0 0-14.677333-6.357333 21.205333 21.205333 0 0 0-17.322667 9.984c-53.632 82.090667-81.493333 159.146667-85.12 236.885333 0 5.632 1.834667 11.776 5.589333 15.402667a19.626667 19.626667 0 0 0 15.402667 6.826666h127.658667a20.992 20.992 0 0 0 20.992-19.797333c2.986667-37.546667 14.122667-74.666667 35.754666-114.048a29.738667 29.738667 0 0 0-2.474666-32.128c-21.546667-27.733333-46.933333-56.704-85.76-96.853333v0.085333z" fill="#004198" p-id="39594"></path><path d="M583.509333 308.48a19.370667 19.370667 0 0 1 17.28 27.733333c-5.546667 14.165333-29.653333 65.322667-74.666666 109.226667a20.352 20.352 0 0 1-14.805334 5.504 20.778667 20.778667 0 0 1-14.762666-5.546667c-45.013333-43.776-69.077333-95.018667-74.666667-109.354666-0.554667-1.706667-1.749333-4.181333-1.749333-7.893334 0-11.178667 9.258667-19.754667 19.072-19.754666 9.216 0 32.682667 2.474667 72.789333 2.474666s63.573333-2.474667 71.552-2.474666v0.128zM291.754667 61.184a67.413333 67.413333 0 0 0-67.242667 67.157333c0 37.12 30.293333 67.242667 67.242667 67.242667s67.2-30.122667 67.2-67.242667c-0.682667-36.906667-30.293333-67.157333-67.2-67.157333z m440.405333 0a67.413333 67.413333 0 0 0-67.2 67.157333 67.2 67.2 0 1 0 67.157333-67.157333zM512 0a67.242667 67.242667 0 1 0 0 134.528A67.242667 67.242667 0 0 0 512 0z" fill="#004198" p-id="39595"></path></svg>