<?xml version="1.0" standalone="no"?><!DOCTYPE svg PUBLIC "-//W3C//DTD SVG 1.1//EN" "http://www.w3.org/Graphics/SVG/1.1/DTD/svg11.dtd"><svg t="1700811389108" class="icon" viewBox="0 0 1024 1024" version="1.1" xmlns="http://www.w3.org/2000/svg" p-id="29508" xmlns:xlink="http://www.w3.org/1999/xlink" width="16" height="16"><path d="M752 172.8h148.8L758.4 45.6l-20 111.2c-1.6 8 4.8 16 13.6 16" p-id="29509" fill="#1296db"></path><path d="M169.6 700h263.2l62.4-352.8H369.6L256 224.8l260.8-0.8L544 72l308 275.2H656l-62.4 352.8h203.2c6.4 0 12-4.8 13.6-11.2l88-497.6H752c-9.6 0-18.4-4-24.8-11.2-6.4-7.2-8.8-16.8-7.2-26.4l19.2-108H280c-6.4 0-12 4.8-13.6 11.2L156 684c-1.6 8 4.8 16 13.6 16M715.2 804.8H625.6v-32h-20.8v32H515.2v19.2h30.4c3.2 16.8 8.8 32.8 16 47.2 9.6 19.2 21.6 36.8 37.6 52-23.2 17.6-51.2 30.4-84 38.4v20c0 0.8 0.8 0.8 0.8 0.8 36.8-8 68-22.4 93.6-41.6 1.6-1.6 3.2-2.4 4.8-4 1.6 0.8 2.4 1.6 4 3.2 26.4 20 57.6 34.4 95.2 42.4 0.8 0 0.8-0.8 0.8-0.8v-20c-32.8-8-60.8-20.8-84-38.4 27.2-27.2 44.8-60.8 53.6-99.2h30.4l0.8-19.2zM620 904c-1.6 1.6-3.2 3.2-4.8 5.6-4.8-4.8-8.8-8.8-12.8-14.4-16.8-20-28.8-44.8-35.2-71.2h96c-7.2 31.2-22.4 58.4-43.2 80M813.6 899.2c0-0.8-17.6-41.6-17.6-41.6h-10.4v-28h27.2v-17.6h-27.2v-40.8h-19.2v40.8h-28.8v17.6h28c-3.2 29.6-14.4 57.6-32.8 88v30.4c0 0.8 1.6 1.6 1.6 0.8 13.6-18.4 24.8-38.4 32-58.4v92.8h19.2v-104.8l9.6 22.4h17.6c0.8 0 1.6-0.8 0.8-1.6" p-id="29510" fill="#1296db"></path><path d="M882.4 772h-20.8v80.8h-48v18.4h96v33.6h-90.4v18.4h90.4v36h-98.4v18.4h119.2v-124.8h-48z" p-id="29511" fill="#1296db"></path><path d="M812.8 787.2c-0.8 0-1.6 0.8-0.8 1.6l16 47.2h20.8c0.8 0 1.6-0.8 0.8-1.6l-16-47.2h-20.8zM931.2 787.2h-20.8l-16 47.2c0 0.8 0 1.6 0.8 1.6h20.8l16-47.2c0-0.8-0.8-1.6-0.8-1.6M147.2 934.4h94.4v17.6H147.2zM82.4 902.4c0 31.2-2.4 55.2-8 76.8-0.8 1.6 0 2.4 0.8 2.4h17.6c5.6-28.8 6.4-53.6 6.4-71.2h24v53.6h-17.6c-0.8 0-1.6 0.8-0.8 1.6l4.8 16h31.2V779.2h-59.2v123.2z m17.6-105.6h24v41.6h-24v-41.6z m0 56.8h24v41.6h-24v-41.6z" p-id="29512" fill="#1296db"></path><path d="M248.8 849.6H272v-16h-68c2.4-4.8 4-10.4 5.6-16h58.4v-16h-16.8c3.2-9.6 6.4-20.8 6.4-21.6 0-0.8 0-1.6-0.8-1.6h-14.4l-7.2 23.2h-20.8c1.6-8.8 4-19.2 4.8-30.4 0-1.6-0.8-1.6-1.6-1.6H200c-1.6 12-3.2 22.4-5.6 32H184l-7.2-23.2h-14.4c-0.8 0-1.6 0.8-0.8 1.6 0 0.8 3.2 12 6.4 21.6h-16.8v16h38.4c-1.6 4.8-4 10.4-6.4 16h-36.8v16h27.2c-11.2 16-23.2 23.2-28 25.6v17.6c0 0.8 0.8 1.6 3.2 0 4.8-3.2 10.4-6.4 16-10.4h64.8l-0.8 23.2h-51.2l0.8-13.6c0-0.8-0.8-0.8-0.8-0.8h-16l-1.6 29.6c0 0.8 0.8 0.8 0.8 0.8h88v42.4h-40c-0.8 0-1.6 0.8-0.8 1.6l4.8 16h55.2v-75.2H248l0.8-30.4c8 7.2 16 12.8 24 17.6 3.2 1.6 3.2 0.8 3.2 0v-17.6c-4.8-3.2-16.8-10.4-27.2-26.4m-64.8 18.4c4.8-4.8 8.8-11.2 12.8-18.4h31.2c4 7.2 8.8 12.8 13.6 18.4H184zM480 779.2H360v19.2h36v61.6h-41.6v19.2h41.6V984h19.2v-104.8h45.6v102.4h36v-19.2H480V779.2z m-19.2 80.8h-45.6v-61.6h45.6v61.6z" p-id="29513" fill="#1296db"></path><path d="M372 922.4s-16.8 12.8-32 24v-112.8h-44.8v19.2h25.6v108c-6.4 4.8-10.4 8-10.4 8l10.4 13.6 52.8-40v-20h-1.6M298.4 775.2c-0.8 0-1.6 0.8-0.8 1.6s26.4 40 26.4 40H344c0.8 0 1.6-0.8 0.8-1.6 0-0.8-26.4-40-26.4-40h-20z" p-id="29514" fill="#1296db"></path></svg>